<svg width="48" height="48" viewBox="0 0 48 48" fill="none" xmlns="http://www.w3.org/2000/svg">
<path fill-rule="evenodd" clip-rule="evenodd" d="M26.707 17.5H8C7.17157 17.5 6.5 16.8284 6.5 16C6.5 15.1716 7.17157 14.5 8 14.5H26.707C27.36 12.1915 29.4824 10.5 32 10.5C34.5176 10.5 36.64 12.1915 37.293 14.5H40C40.8284 14.5 41.5 15.1716 41.5 16C41.5 16.8284 40.8284 17.5 40 17.5H37.293C36.64 19.8085 34.5176 21.5 32 21.5C29.4824 21.5 27.36 19.8085 26.707 17.5ZM29.5 16C29.5 14.6193 30.6193 13.5 32 13.5C33.3807 13.5 34.5 14.6193 34.5 16C34.5 17.3807 33.3807 18.5 32 18.5C30.6193 18.5 29.5 17.3807 29.5 16Z" fill="black"/>
<path fill-rule="evenodd" clip-rule="evenodd" d="M21.293 33.5H40C40.8284 33.5 41.5 32.8284 41.5 32C41.5 31.1716 40.8284 30.5 40 30.5H21.293C20.64 28.1915 18.5176 26.5 16 26.5C13.4824 26.5 11.36 28.1915 10.707 30.5H8C7.17157 30.5 6.5 31.1716 6.5 32C6.5 32.8284 7.17157 33.5 8 33.5H10.707C11.36 35.8085 13.4824 37.5 16 37.5C18.5176 37.5 20.64 35.8085 21.293 33.5ZM13.5 32C13.5 30.6193 14.6193 29.5 16 29.5C17.3807 29.5 18.5 30.6193 18.5 32C18.5 33.3807 17.3807 34.5 16 34.5C14.6193 34.5 13.5 33.3807 13.5 32Z" fill="black"/>
</svg>
